<svg xmlns="http://www.w3.org/2000/svg" viewBox="0 0 512 512" width="512" height="512">
  <!-- 背景 - 极简设计，无填充背景圆 -->
  <circle cx="256" cy="256" r="240" fill="none" stroke="#a8d5f2" stroke-width="2" stroke-opacity="0.8"/>
  
  <!-- 左侧设备 - 轻量线条设计 -->
  <rect x="110" y="210" width="90" height="60" rx="8" fill="none" stroke="#a8d5f2" stroke-width="1.5"/>
  <rect x="110" y="270" width="90" height="8" fill="#a8d5f2" opacity="0.5"/>
  <rect x="145" y="278" width="20" height="4" fill="#a8d5f2" opacity="0.5"/>
  
  <!-- 右侧设备 - 轻量线条设计 -->
  <rect x="312" y="210" width="90" height="60" rx="8" fill="none" stroke="#a8d5f2" stroke-width="1.5"/>
  <rect x="312" y="270" width="90" height="8" fill="#a8d5f2" opacity="0.5"/>
  <rect x="347" y="278" width="20" height="4" fill="#a8d5f2" opacity="0.5"/>
  
  <!-- 传输中的文件 - 极简设计 -->
  <g transform="translate(216, 200)">
    <rect x="0" y="0" width="80" height="90" fill="none" stroke="#a8d5f2" stroke-width="1.5" rx="8"/>
    <path d="M0 20 H80" stroke="#a8d5f2" stroke-width="1" opacity="0.7"/>
    <path d="M10 10 H70" stroke="#a8d5f2" stroke-width="1" opacity="0.7"/>
    <path d="M10 35 H70" stroke="#a8d5f2" stroke-width="1" opacity="0.7"/>
    <path d="M10 50 H70" stroke="#a8d5f2" stroke-width="1" opacity="0.7"/>
    <path d="M10 65 H70" stroke="#a8d5f2" stroke-width="1" opacity="0.7"/>
    <path d="M10 80 H70" stroke="#a8d5f2" stroke-width="1" opacity="0.7"/>
  </g>
  
  <!-- 连接线 - 更细更轻 -->
  <path d="M200 235 H216" stroke="#a8d5f2" stroke-width="1.5" opacity="0.7"/>
  <path d="M296 235 H312" stroke="#a8d5f2" stroke-width="1.5" opacity="0.7"/>
  
  <!-- 左向右传输箭头 - 轻量级设计 -->
  <path d="M240 170 L272 170 L272 155 L295 190 L272 225 L272 210 L240 210 Z" fill="none" stroke="#9ed8b3" stroke-width="1.5" opacity="0.8"/>
  
  <!-- 右向左传输箭头 - 轻量级设计 -->
  <path d="M272 310 L240 310 L240 295 L217 330 L240 365 L240 350 L272 350 Z" fill="none" stroke="#f2c0c0" stroke-width="1.5" opacity="0.8"/>
  
  <!-- 无线信号图标 - 极简设计 -->
  <path d="M256 140 C 286 140, 311 150, 330 170" stroke="#f2e3a8" stroke-width="1.5" fill="none" opacity="0.8"/>
  <path d="M256 140 C 226 140, 201 150, 182 170" stroke="#f2e3a8" stroke-width="1.5" fill="none" opacity="0.8"/>
  <path d="M256 140 C 276 140, 291 145, 300 155" stroke="#f2e3a8" stroke-width="1.5" fill="none" opacity="0.8"/>
  <path d="M256 140 C 236 140, 221 145, 212 155" stroke="#f2e3a8" stroke-width="1.5" fill="none" opacity="0.8"/>
  <circle cx="256" cy="140" r="4" fill="none" stroke="#f2e3a8" stroke-width="1.5" opacity="0.8"/>
</svg>